<?xml version="1.0" encoding="UTF-8" standalone="no"?><!DOCTYPE svg PUBLIC "-//W3C//DTD SVG 1.1//EN" "http://www.w3.org/Graphics/SVG/1.1/DTD/svg11.dtd"><svg width="100%" height="100%" viewBox="0 0 1024 1024" version="1.1" xmlns="http://www.w3.org/2000/svg" xmlns:xlink="http://www.w3.org/1999/xlink" xml:space="preserve" xmlns:serif="http://www.serif.com/" style="fill-rule:evenodd;clip-rule:evenodd;stroke-linecap:round;stroke-linejoin:round;stroke-miterlimit:1.5;"><path id="orange" d="M155.244,152.587c-46.17,46.17 4.289,306.324 75.324,354.204c25.583,17.244 135.499,-8.376 202.711,-76.169c65.855,-66.425 89.446,-174.604 74.31,-200.852c-34.674,-60.131 -306.175,-123.353 -352.345,-77.183Z" style="fill:#d69600;"/><path id="indian" d="M5.514,510.681c-0,65.294 219.637,213.571 303.723,197.198c30.283,-5.897 89.89,-101.735 89.479,-197.198c-0.403,-93.536 -60.216,-186.711 -89.479,-194.569c-67.037,-18.001 -303.723,129.275 -303.723,194.569Z" style="fill:#be3f30;"/><path id="brown" d="M152.587,868.756c46.17,46.17 306.324,-4.289 354.204,-75.324c17.244,-25.583 -8.376,-135.499 -76.169,-202.711c-66.425,-65.855 -174.604,-89.446 -200.852,-74.31c-60.131,34.674 -123.353,306.175 -77.183,352.345Z" style="fill:#594103;"/><path id="blue" d="M510.767,1018.599c65.294,0 213.571,-219.637 197.198,-303.723c-5.897,-30.283 -101.735,-89.89 -197.198,-89.479c-93.536,0.403 -186.711,60.216 -194.569,89.479c-18.001,67.037 129.275,303.723 194.569,303.723Z" style="fill:#425290;"/><path id="cian" d="M868.708,872.078c46.17,-46.17 -4.289,-306.324 -75.324,-354.204c-25.583,-17.244 -135.499,8.376 -202.711,76.169c-65.855,66.425 -89.446,174.604 -74.31,200.852c34.674,60.131 306.175,123.353 352.345,77.183Z" style="fill:#7dabdc;"/><path id="fucsia" d="M1019.618,513.185c0,-65.294 -219.637,-213.571 -303.723,-197.198c-30.283,5.897 -89.89,101.735 -89.479,197.198c0.403,93.536 60.216,186.711 89.479,194.569c67.037,18.001 303.723,-129.275 303.723,-194.569Z" style="fill:#b71f76;"/><path id="groc" d="M871.413,155.244c-46.17,-46.17 -306.324,4.289 -354.204,75.324c-17.244,25.583 8.376,135.499 76.169,202.711c66.425,65.855 174.604,89.446 200.852,74.31c60.131,-34.674 123.353,-306.175 77.183,-352.345Z" style="fill:#c2d424;"/><path id="groc1" serif:id="groc" d="M514.013,4c-65.294,0 -213.571,219.637 -197.198,303.723c5.897,30.283 101.735,89.89 197.198,89.479c93.536,-0.403 186.711,-60.216 194.569,-89.479c18.001,-67.037 -129.275,-303.723 -194.569,-303.723Z" style="fill:#efd400;"/><path id="groc-orange" d="M363.881,158.249c67.491,18.073 128.47,45.096 143.708,71.522c12.472,21.628 -1.35,98.885 -43.446,162.573c-76.498,-14.774 -142.468,-59.659 -147.328,-84.621c-6.8,-34.924 14.802,-93.232 47.066,-149.474Z" style="fill:#e7c100;"/><path id="indian-orange" d="M157.851,366.692c60.249,-34.692 122.055,-58.455 151.386,-50.579c24.246,6.51 69.464,71.59 84.486,146.917c-64.374,43.199 -142.161,57.913 -163.154,43.763c-29.68,-20.006 -55.769,-77.07 -72.717,-140.1Z" style="fill:#cc8102;"/><path id="brown-indian" d="M393.804,560.828c-14.829,76.38 -59.636,142.196 -84.567,147.051c-35.229,6.86 -94.252,-15.182 -150.947,-47.913c18.072,-67.43 45.075,-128.328 71.481,-143.555c21.794,-12.567 100.072,1.563 164.033,44.417Z" style="fill:#ac0028;"/><path id="blue-brown" d="M463.106,630.392c43.139,64.351 57.828,142.058 43.686,163.039c-20.004,29.678 -77.059,55.764 -140.082,72.712c-34.656,-60.212 -58.382,-121.956 -50.512,-151.268c6.51,-24.245 71.585,-69.46 146.908,-84.484Z" style="fill:#1c2b32;"/><path id="cian-blue" d="M561.124,630.35c76.291,14.87 141.991,59.618 146.841,84.526c6.88,35.335 -15.314,94.606 -48.208,151.456c-67.367,-18.072 -128.18,-45.053 -143.395,-71.438c-12.601,-21.852 1.639,-100.49 44.761,-164.545Z" style="fill:#4e71b1;"/><path id="fucsia-cian" d="M631.411,560.848c64.141,-42.589 141.107,-57.038 161.972,-42.974c29.664,19.994 55.74,77.006 72.689,139.994c-59.866,34.315 -121.043,57.708 -150.178,49.885c-24.244,-6.51 -69.459,-71.584 -84.484,-146.906Z" style="fill:#7d0c5a;"/><path id="verd-fucsia" d="M865.892,363.353c-18.073,67.701 -45.168,128.958 -71.663,144.236c-21.683,12.503 -99.274,-1.42 -163.053,-43.764c14.672,-76.715 59.702,-142.967 84.719,-147.839c35.032,-6.822 93.594,14.937 149.997,47.366Z" style="fill:#77a930;"/><path id="groc-verd" d="M658.664,157.488c34.332,59.884 57.744,121.091 49.918,150.235c-6.554,24.407 -72.46,70.067 -148.424,84.782c-42.57,-64.134 -57.012,-141.075 -42.95,-161.937c20.149,-29.893 77.89,-56.142 141.456,-73.08Z" style="fill:#f5e702;"/><ellipse id="centre-blanc" serif:id="centre blanc" cx="512" cy="512" rx="277.361" ry="285.473" style="fill:#fff;stroke:#fff;stroke-width:1px;"/></svg>